<?xml version="1.0" standalone="no"?><!DOCTYPE svg PUBLIC "-//W3C//DTD SVG 1.1//EN" "http://www.w3.org/Graphics/SVG/1.1/DTD/svg11.dtd"><svg class="icon" width="200px" height="200.00px" viewBox="0 0 1024 1024" version="1.1" xmlns="http://www.w3.org/2000/svg"><path d="M816.84656085 245.02857143v341.71936508L512.08465608 759.31428571v-86.31873015l228.57142858-129.45269842V288l76.19047619-42.97142857zM702.56084656 180.34793651v43.12380952l-76.19047619 43.12380953v-43.12380953l76.19047619-43.12380952z" fill="#00C19C" /><path d="M702.56084656 309.40444444v212.41904762L512.08465608 629.5568254l-76.19047619 43.05269841-37.63809523 21.33333333-0.15238096-85.41460317L435.89417989 586.97142857l76.19047619-43.34730159L626.37037037 478.47619048V352.38603175l76.19047619-42.98158731z" fill="#00C19C" /><path d="M588.27513228 461.3384127l-76.1904762 42.66666667-76.19047619 42.66666666-37.79047619 21.18095238-76.10920635 42.58539683L283.51322751 632.00507937V545.82857143l38.4-21.63809524 76.03809524-42.97142857L435.89417989 459.81460317l76.19047619-43.05269841 75.88571429-42.81904762 0.30476191 87.39555556zM587.36084656 159.30920635L512.08465608 201.9047619v-43.58095238l75.12380953-42.73777777 0.15238095 43.7231746zM587.73671958 288.45714286L512.08465608 331.35746032v-43.12380953l75.50984127-42.81904762 0.14222223 43.04253969z" fill="#00C19C" /><path d="M587.20846561 115.58603175L512.08465608 158.32380952 283.51322751 288.23365079v532.41904762l-76.19047619-43.12380952V245.02857143L511.62751323 73.9047619l75.58095238 41.68126985z" fill="#5DF4C5" /><path d="M398.48973545 885.41460317l-76.19047619-43.12380952-0.30476191-231.85269841 76.10920635-42.58539683v40.67555556l0.15238096 85.41460317 0.23365079 191.47174603zM702.56084656 180.34793651l-76.19047619 43.12380952-38.77587302 21.94285714L512.08465608 288.23365079 397.7989418 352.91428571l0.15238095 128.30476191L321.91322751 524.19047619l-0.3047619-214.4L512.08465608 201.9047619l75.27619048-42.59555555 39.00952381-22.08507937 76.19047619 43.12380953zM512.08465608 503.99492063v39.62920635l-76.19047619 43.34730159v-40.29968254l76.19047619-42.6768254zM512.08465608 629.5568254v320.5384127l-76.19047619-43.12380953V672.60952381l76.19047619-43.05269841z" fill="#5DF4C5" /><path d="M816.84656085 245.02857143l-76.19047619 42.97142857-38.0952381 21.40444444-76.19047619 42.98158731-38.4 21.55682539-75.88571429 42.81904762-76.19047619 43.05269841v-85.34349206l76.19047619-43.11365079 75.6520635-42.90031746 38.63365079-21.8615873L740.65608466 201.9047619l76.19047619 43.12380953z" fill="#5DF4C5" /><path d="M398.25608466 693.94285714l-0.45714286 0.2336508v-85.49587302l0.3047619-0.15238095 0.15238096 85.41460317z" fill="#00C19C" /></svg>